<svg width="26" height="26" viewBox="0 0 26 26" fill="none" xmlns="http://www.w3.org/2000/svg">
<path d="M19 23.3923C16.7123 24.7131 14.0527 25.2421 11.4337 24.8973C8.81468 24.5525 6.38263 23.3532 4.51473 21.4853C2.64683 19.6174 1.44748 17.1853 1.10268 14.5663C0.757879 11.9473 1.28691 9.2877 2.60771 7C3.92852 4.7123 5.96728 2.92435 8.40781 1.91345C10.8483 0.902549 13.5542 0.725195 16.1058 1.40889C18.6574 2.09259 20.9121 3.59913 22.5202 5.69486C24.1283 7.79059 25 10.3584 25 13V15C25 16.8409 23.5076 18.3333 21.6667 18.3333C19.8257 18.3333 18.3333 16.8409 18.3333 15V7.66667M18.3333 13C18.3333 15.9455 15.9455 18.3333 13 18.3333C10.0545 18.3333 7.66668 15.9455 7.66668 13C7.66668 10.0545 10.0545 7.66667 13 7.66667C15.9455 7.66667 18.3333 10.0545 18.3333 13Z" stroke="#576AD2" stroke-width="2" stroke-linecap="round" stroke-linejoin="round"/>
</svg>
