<svg width="241" height="100" viewBox="0 0 241 100" fill="none" xmlns="http://www.w3.org/2000/svg">
<path d="M112.143 48.6667V32.56H106.653V29.0133H121.836V32.56H116.32V48.6667H112.143ZM123.986 48.6667L121.014 45.7067V37.7067L123.986 34.7467H131.109L134.108 37.7067V42.9333H125.137V44.5333L126.208 45.6L133.867 45.5733V48.6667H123.986ZM125.111 40.24H130.198V38.4267L129.127 37.36L126.208 37.3867L125.111 38.4267V40.24ZM140.251 48.6667L137.279 45.7067V37.7067L140.251 34.7467H147.642L150.4 37.3333V40H146.276V38.4267L145.232 37.36L142.447 37.3867L141.376 38.4267L141.403 44.5333L142.447 45.6L150.186 45.5733V48.6667H140.251ZM153.421 48.6667V29.0133H157.545V36.56L159.58 34.72H164.507L167.48 37.7067V48.6667H163.356V38.4267L162.338 37.3867H160.196L157.545 39.8133V48.6667H153.421ZM180.024 48.6667L177.052 45.7067V31.9733L180.024 29.0133H189.745L192.61 31.84L189.959 34.3733L187.897 32.3733H182.301L181.229 33.4133V44.24L182.301 45.3067H188.111L190.146 43.3067L192.797 45.84L189.959 48.6667H180.024ZM195.471 48.6667V34.72H199.595V37.04L202.032 34.7467H205.004V38.5867H201.416L199.595 40.32V48.6667H195.471ZM208.306 48.6667L205.333 45.7067V42.72L208.306 39.76H215.027V38.6933L213.956 37.6267H207.101V34.7467H216.178L219.151 37.7067V48.6667H215.027V46.6933L213.072 48.6667H208.306ZM210.502 46.0533H212.483L215.027 43.52V42.24H210.502L209.43 43.28L209.457 45.0133L210.502 46.0533ZM222.746 48.6667V37.52H221.648V34.7467H222.746V31.6533L225.504 29.0133H229.976V31.7867H227.781L226.87 32.72V34.7467H229.334V37.52H226.87V48.6667H222.746ZM234.711 48.6667L231.926 46.0533V37.52H230.882V34.7467H232.087L233.265 31.04H236.05V34.7467H238.38V37.52H236.05V44.8267L236.961 45.76H238.996V48.6667H234.711ZM110.88 74V71.568H112.486V60.7093H110.88V58.2773H116.771V60.7093H115.164V71.568H116.771V74H110.88ZM119.653 74V62.8427H122.245V64.8267L124.258 62.8427H128.264L130.642 65.232V74H128.05V65.8293L127.15 64.848H124.88L122.245 67.4507V74H119.653ZM133.753 74V62.8427H136.345V64.8267L138.359 62.8427H142.365L144.743 65.232V74H142.151V65.8293L141.251 64.848H138.98L136.345 67.4507V74H133.753ZM150.017 74L147.639 71.632V65.232L150.017 62.8427H155.629L158.007 65.232V71.632L155.629 74H150.017ZM151.173 72.016L154.472 71.9947L155.415 71.056V65.7867L154.472 64.848H151.173L150.231 65.7867V71.056L151.173 72.016ZM163.874 74L159.076 62.8427H161.925L165.159 71.4613H165.674L168.908 62.8427H171.757L166.937 74H163.874ZM174.392 74L172.014 71.632V69.2213L174.392 66.832H179.812V65.8933L178.869 64.9547H173.492V62.8427H180.026L182.404 65.232V74H179.812V72.3787L178.162 74H174.392ZM175.549 72.016L177.562 71.9947L179.812 69.7547V68.8373H175.549L174.606 69.776V71.056L175.549 72.016ZM187.759 74L185.595 71.888V64.848H184.695V62.8427H185.659L186.345 60.1333H188.187V62.8427H190.136V64.848H188.187V70.9707L189.065 71.888H190.651V74H187.759ZM192.894 61.6267V58.96H195.486V61.6267H192.894ZM192.894 74V62.8427H195.486V74H192.894ZM200.874 74L198.496 71.632V65.232L200.874 62.8427H206.486L208.864 65.232V71.632L206.486 74H200.874ZM202.03 72.016L205.329 71.9947L206.272 71.056V65.7867L205.329 64.848H202.03L201.088 65.7867V71.056L202.03 72.016ZM211.869 74V62.8427H214.461V64.8267L216.474 62.8427H220.48L222.858 65.232V74H220.266V65.8293L219.366 64.848H217.096L214.461 67.4507V74H211.869ZM226.119 74V71.888H231.989L232.846 71.0133V70.288L231.839 69.2853H227.683L225.498 67.152V64.9973L227.64 62.8427H234.238V64.9547H228.925L228.09 65.7867V66.2773L229.054 67.2373H233.253L235.438 69.3707V71.8667L233.295 74H226.119Z" fill="#576AD2"/>
<path d="M66.2715 65.9967C57.2402 74.9907 47.2261 81.2093 38.3875 84.0327C29.4742 86.88 22.156 86.1753 17.9879 82.0247C13.8199 77.8733 13.1124 70.586 15.9714 61.7095C18.8064 52.9075 25.0511 42.935 34.0824 33.9411C43.1138 24.9473 53.1279 18.7285 61.9665 15.9052C70.8801 13.0581 78.1978 13.7627 82.3664 17.9134C86.5344 22.0641 87.2413 29.352 84.3828 38.2283C81.5477 47.0303 75.3031 57.0028 66.2715 65.9967Z" stroke="#09C7E1" stroke-width="4"/>
<path d="M66.2715 33.9411C75.303 42.935 81.5476 52.9075 84.3827 61.7095C87.2419 70.586 86.5343 77.8733 82.3663 82.0247C78.1977 86.1753 70.88 86.88 61.9665 84.0327C53.1278 81.2093 43.1138 74.9907 34.0825 65.9966C25.0511 57.0028 18.8064 47.0303 15.9713 38.2283C13.1124 29.352 13.8199 22.0641 17.9879 17.9134C22.156 13.7627 29.4742 13.0581 38.3875 15.9051C47.2261 18.7284 57.2402 24.9473 66.2715 33.9411Z" stroke="#CB2F83" stroke-width="4"/>
<path d="M50.2083 27.3333C62.9805 27.3333 74.477 29.9876 82.7319 34.2151C91.0557 38.4785 95.7305 44.13 95.7305 50C95.7305 55.87 91.0557 61.5215 82.7319 65.7849C74.477 70.0127 62.9805 72.6667 50.2083 72.6667C37.4361 72.6667 25.9393 70.0127 17.6848 65.7849C9.3605 61.5215 4.68604 55.87 4.68604 50C4.68604 44.13 9.3605 38.4785 17.6848 34.2151C25.9393 29.9876 37.4361 27.3333 50.2083 27.3333Z" stroke="#763AF5" stroke-width="4"/>
<path d="M72.9695 50C72.9695 62.7193 70.3044 74.168 66.059 82.3887C61.7779 90.678 56.1028 95.3333 50.2084 95.3333C44.3139 95.3333 38.6388 90.678 34.3577 82.3887C30.1126 74.168 27.4473 62.7193 27.4473 50C27.4473 37.2808 30.1126 25.8317 34.3577 17.6115C38.6388 9.32173 44.3139 4.66667 50.2084 4.66667C56.1028 4.66667 61.7779 9.32173 66.059 17.6115C70.3044 25.8317 72.9695 37.2808 72.9695 50Z" stroke="#1277D4" stroke-width="4"/>
</svg>
