<svg width="26" height="26" viewBox="0 0 26 26" fill="none" xmlns="http://www.w3.org/2000/svg">
<path d="M5.56612 1.317C7.01604 0.689422 8.70217 1.011 9.81933 2.12816L10.2788 2.58764C11.7514 4.06025 12.1084 6.31358 11.1631 8.16925L10.2936 9.87591C9.77847 10.8871 9.973 12.115 10.7755 12.9175L13.0825 15.2245C13.885 16.027 15.1129 16.2215 16.1241 15.7064L17.8308 14.8369C19.6864 13.8916 21.9398 14.2486 23.4124 15.7212L23.8718 16.1807C24.989 17.2978 25.3106 18.984 24.683 20.4339C22.9982 24.3264 18.7299 26.3052 15.1384 24.0489C12.9793 22.6925 10.4575 20.7939 7.83181 18.1682C5.20612 15.5425 3.30751 13.0207 1.95109 10.8616C-0.305239 7.27007 1.67364 3.0018 5.56612 1.317Z" stroke="#576AD2" stroke-width="2" stroke-linecap="round" stroke-linejoin="round"/>
</svg>
